<svg xmlns="http://www.w3.org/2000/svg" width="426.964" height="180.405" viewBox="0 0 426.964 180.405">
  <g id="canabel_logo_black" transform="translate(-212.556 -429.584)">
    <path id="Path_323" data-name="Path 323" d="M77.7,261.065a34.179,34.179,0,0,1,59.792-22.393l-10.238,8.938a18.873,18.873,0,0,0-15.492-7.508c-10.715,0-19.881,8.57-19.881,21.083s9.166,20.834,19.881,20.834a19.379,19.379,0,0,0,16.793-9.4l11.44,7.865c-5.482,8.451-15.005,14.529-28.233,14.529A33.653,33.653,0,0,1,77.7,261.065Z" transform="translate(223.331 224.498)"/>
    <path id="Path_324" data-name="Path 324" d="M118.215,227.122a28.881,28.881,0,0,1,19.057,6.782v-5.591h14.886v65.5H137.272v-5.6a28.836,28.836,0,0,1-19.057,6.792,33.553,33.553,0,0,1-33.943-33.943A34,34,0,0,1,118.215,227.122ZM98.443,261.184c0,12.383,9.176,20.834,19.891,20.834,11.907,0,20.01-9.523,20.01-20.834,0-11.44-7.974-21.083-20.01-21.083C107.619,240.1,98.443,248.552,98.443,261.184Z" transform="translate(282.059 224.498)"/>
    <path id="Path_325" data-name="Path 325" d="M92.348,233.354a8.65,8.65,0,0,1,8.818-8.451,8.747,8.747,0,0,1,8.928,8.451c0,4.648-4.042,8.342-8.928,8.342A8.554,8.554,0,0,1,92.348,233.354Zm.834,14.777h14.886v65.5H93.182Z" transform="translate(354.183 204.681)"/>
    <path id="Path_326" data-name="Path 326" d="M109.78,228.314v5.948c3.575-3.8,9.414-7.14,18.819-7.14a25.118,25.118,0,0,1,25.6,25.6v41.093H139.314l.119-39.067c0-9.285-4.647-14.648-14.648-14.648-9.057,0-14.648,5.948-14.648,14.648v39.067H95.252v-65.5Z" transform="translate(380.116 224.498)"/>
    <g id="Group_381" data-name="Group 381" transform="translate(212.556 524.238)">
      <path id="Path_327" data-name="Path 327" d="M68.787,282.968c0-8.212,4.29-15.243,12.393-20.834a23.518,23.518,0,0,1-1.43-7.746c0-9.643,8.093-17.508,20.725-17.508,8.57,0,16.078,3.217,21.073,10.367l-11.43,6.782c-2.383-3.446-5.124-5-9.176-5-4.28,0-7.5,2.622-7.5,5.958,0,2.86,1.788,5.363,4.648,8.58l19.3,20.954a30.676,30.676,0,0,0,5.948-7.855l8.58,9.3a40.343,40.343,0,0,1-5.839,8.093l11.668,12.741H119.4l-3.446-3.813a35.4,35.4,0,0,1-18.461,5C80.585,307.983,68.787,297.864,68.787,282.968ZM106.9,293.216,88.44,273.087c-4.518,2.979-5.948,6.316-5.948,9.881,0,7.388,5.353,12.632,15.244,12.632A21.4,21.4,0,0,0,106.9,293.216Z" transform="translate(-68.787 -222.232)"/>
      <path id="Path_328" data-name="Path 328" d="M110.1,237.2a28.86,28.86,0,0,1,19.057,6.783V238.4h14.9v65.5h-14.9v-5.591A28.861,28.861,0,0,1,110.1,305.09a33.559,33.559,0,0,1-33.943-33.943A34,34,0,0,1,110.1,237.2ZM90.336,271.266c0,12.384,9.166,20.844,19.881,20.844,11.917,0,20.01-9.533,20.01-20.844,0-11.43-7.974-21.083-20.01-21.083C99.5,250.184,90.336,258.645,90.336,271.266Z" transform="translate(-2.986 -219.339)"/>
      <path id="Path_329" data-name="Path 329" d="M99.321,235.405v24.419a29.028,29.028,0,0,1,18.7-6.554,33.943,33.943,0,1,1,0,67.885,29.074,29.074,0,0,1-18.7-6.544v5.353H84.435V235.405Zm38.471,51.927c0-12.622-9.176-21.083-19.891-21.083-12.026,0-19.891,9.652-19.891,21.083,0,11.311,7.984,20.844,19.891,20.844C128.616,308.176,137.792,299.716,137.792,287.332Z" transform="translate(70.959 -235.405)"/>
      <path id="Path_330" data-name="Path 330" d="M91.839,271.028c0-19.176,15.839-33.824,34.181-33.824,19.057,0,33.943,15.244,33.943,35.015a22.724,22.724,0,0,1-.357,3.813l-52.761.229a20.073,20.073,0,0,0,19.772,15.968c8.1,0,14.648-3.217,17.031-10.725l13.813,2.264c-4.042,10.725-15.363,21.321-30.844,21.321C106.844,305.09,91.839,290.085,91.839,271.028Zm53.357-6.2c-1.788-8.689-10.238-14.647-19.176-14.647a19.483,19.483,0,0,0-19.176,14.647Z" transform="translate(137.081 -219.339)"/>
      <path id="Path_331" data-name="Path 331" d="M99.723,235.405h14.886v84.559H99.723Z" transform="translate(207.49 -235.405)"/>
    </g>
    <g id="Group_382" data-name="Group 382" transform="translate(12150.977 -3454.355)">
      <path id="Path_40" data-name="Path 40" d="M-678.178,1631.02c-.2,19.195-11.419,32-30.553,36.587a84.135,84.135,0,0,1-19.184,1.971h-39.314a3.481,3.481,0,0,1-3.837-3.837V1596.3a3.481,3.481,0,0,1,3.837-3.837h40.454a91.385,91.385,0,0,1,17.423,1.6c19.172,4.419,30.976,17.765,31.174,36.96" transform="translate(-10833.279 2394.766)"/>
      <path id="Path_41" data-name="Path 41" d="M-767.042,1606.78c-2.674,0-4.024-1.53-4.024-3.954v-63.495c0-2.426,1.349-3.956,4.024-3.956h35.154a88.2,88.2,0,0,1,16.534,1.49c18.194,4.12,29.393,16.316,29.581,34.213-.188,17.895-11.047,29.81-29.2,34.085a91.073,91.073,0,0,1-17.837,1.616Z" transform="translate(-10833.279 2370.6)" fill="#fbd10e"/>
    </g>
  </g>
</svg>
